<?xml version="1.0" standalone="yes"?>
<svg width="512" height="512">
<path style="fill:#000000; stroke:none;" d="M0 0L0 233L1 233C1.05472 213.169 6.767 192.685 13 174C36.3254 104.078 91.7094 45.7372 160 18.2006C182.558 9.10471 208.465 1.0676 233 1L211 0L164 0L0 0z"/>
<path style="fill:#ff1248; stroke:none;" d="M233 0.424377C187.052 6.47513 145.301 19.8317 107 46.7207C81.0151 64.9631 58.8785 88.6339 41.3333 115C25.0761 139.431 13.7019 166.567 6.62654 195C1.26819 216.533 0 237.921 0 260C0 411.037 139.407 529.203 288 510.715C325.368 506.066 361.045 493.317 393 473.424C416.815 458.597 437.822 439.669 455.576 418C548.999 303.974 522.517 129.613 403 45.294C378.386 27.929 350.233 14.9368 321 7.62656C293.165 0.666077 261.669 -3.35095 233 0.424377z"/>
<path style="fill:#000000; stroke:none;" d="M279 0L279 1C298.846 1.05466 319.309 6.7637 338 13C406.297 35.7876 463.466 88.908 491.85 155C501.934 178.482 510.929 206.196 511 232L512 232L512 0L279 0z"/>
<path style="fill:#ff416d; stroke:none;" d="M130 101L130 102L345 102L325 101L281 101L130 101z"/>
<path style="fill:#ffffff; stroke:none;" d="M129.603 103.028C126.522 105.468 128 113.524 128 117C128 130.117 128.438 144.814 144 148.945C158.892 152.899 177.647 150 193 150L291 150C305.586 150 329.261 154.555 340.815 143.671C349.18 135.792 348 124.444 348 114C348 110.811 349.209 104.339 345.682 102.603C341.878 100.732 335.155 102 331 102L298 102L180 102L143 102C139.469 102 132.543 100.699 129.603 103.028z"/>
<path style="fill:#ffc1cf; stroke:none;" d="M127 104L127 130L128 130L127 104z"/>
<path style="fill:#ff5d82; stroke:none;" d="M348 105L348 129L349 129L348 105z"/>
<path style="fill:#ff7090; stroke:none;" d="M347.333 131.667L347.667 132.333L347.333 131.667z"/>
<path style="fill:#ffb0c2; stroke:none;" d="M145.667 149.333L146.333 149.667L145.667 149.333z"/>
<path style="fill:#ff99b0; stroke:none;" d="M328.667 149.333L329.333 149.667L328.667 149.333z"/>
<path style="fill:#ff416d; stroke:none;" d="M149 150L149 151L326 151L309 150L273 150L149 150z"/>
<path style="fill:#ff305f; stroke:none;" d="M191 157L191 240L192 240L192 183L191 157z"/>
<path style="fill:#ffa0b6; stroke:none;" d="M192 157L192 158L222 158L192 157M256 157L256 158L286 158L256 157z"/>
<path style="fill:#ffffff; stroke:none;" d="M192 158C192 184.68 188.838 213.548 192.185 240C193.444 249.951 203.539 255.891 212.999 252.258C222.944 248.438 222 236.629 222 228L222 158L192 158M256 158L256 208C256 212.678 254.14 222.44 257.603 226.08C263.169 231.931 278.615 229 286 229L286 158L256 158z"/>
<path style="fill:#ff6a8c; stroke:none;" d="M160 201L160 202L164 202L160 201z"/>
<path style="fill:#ffffff; stroke:none;" d="M175 207C169.914 204.324 164.036 200.344 158.04 202.742C153.174 204.688 150.852 210.759 148.421 215C142.226 225.807 127.122 243.167 128.062 256C128.397 260.566 135.267 269.408 140.61 266.183C145.323 263.339 148.731 253.692 151.421 249C154.672 243.329 157.856 237.616 161.201 232C166.022 223.904 171.359 215.7 175 207z"/>
<path style="fill:#ffabbe; stroke:none;" d="M184 206L184 241L185 241L184 206z"/>
<path style="fill:#ffffff; stroke:none;" d="M183 208C171.742 226.391 161.399 245.351 150.576 264C146.611 270.83 139.266 279.521 142.858 287.96C146.662 296.898 164.891 303.34 173 308C181.008 312.602 188.972 317.283 197 321.85C199.589 323.322 203.486 326.437 206.621 324.867C212.956 321.695 217.935 307.012 221.424 301C233.881 279.537 249.42 257.888 259 235L230 219C230 228.418 231.34 239.42 226.647 247.999C218.945 262.08 199.976 265.556 189.789 251.96C179.454 238.166 188.93 222.133 183 208z"/>
<path style="fill:#ffd0da; stroke:none;" d="M229 219L229 239L230 239L229 219z"/>
<path style="fill:#ff416d; stroke:none;" d="M263 229L263 230L275 230L263 229z"/>
<path style="fill:#ffb6c6; stroke:none;" d="M335.667 229.333L336.333 229.667L335.667 229.333z"/>
<path style="fill:#ffffff; stroke:none;" d="M337 229.48C323.544 232.194 315.238 256.147 309 267C293.279 294.355 277.338 321.587 261.719 349C254.877 361.009 245.68 373.142 240.61 386C235.778 398.253 245.859 411.114 259 409.8C273.71 408.329 281.863 384.287 288.281 373C303.494 346.242 318.974 319.622 334.424 293C342.146 279.696 353.013 265.622 357.895 251C362.101 238.401 349.396 226.98 337 229.48z"/>
<path style="fill:#ff6386; stroke:none;" d="M344.667 229.333L345.333 229.667L344.667 229.333z"/>
<path style="fill:#ff93ac; stroke:none;" d="M296 235L296 236L310 236L296 235z"/>
<path style="fill:#ffffff; stroke:none;" d="M235 378L237 378L291.421 284L319 235L279 236.576L267.329 237.603L253.576 259L224.011 310L212.346 333L218.861 348L235 378z"/>
<path style="fill:#ffb0c2; stroke:none;" d="M267 236L267 237L280 237L267 236z"/>
<path style="fill:#ff7a98; stroke:none;" d="M221.333 241.667L221.667 242.333L221.333 241.667z"/>
<path style="fill:#ff5a7f; stroke:none;" d="M192.333 242.667L192.667 243.333L192.333 242.667z"/>
<path style="fill:#ffa6ba; stroke:none;" d="M228.333 243.667L228.667 244.333L228.333 243.667z"/>
<path style="fill:#ffb7c8; stroke:none;" d="M127 252L127 257L128 257L127 252z"/>
<path style="fill:#ffaec1; stroke:none;" d="M203 253L203 254L209 254L203 253z"/>
<path style="fill:#ff89a4; stroke:none;" d="M222 254L223 255L222 254z"/>
<path style="fill:#ff9eb4; stroke:none;" d="M210.667 260.333L211.333 260.667L210.667 260.333z"/>
<path style="fill:#000000; stroke:none;" d="M0 279L0 512L232 512L232 511C212.558 510.946 192.305 505.108 174 499C108.443 477.127 52.1838 426.894 23.3086 364C15.3815 346.734 9.1692 328.588 5.21065 310C3.1708 300.422 3.70501 287.826 0 279M511 280C510.943 300.84 504.588 322.511 497.691 342C474.095 408.686 421.96 463.952 357 491.85C333.469 501.955 305.861 510.929 280 511L280 512L512 512L512 349L512 302L511 280z"/>
<path style="fill:#ff86a2; stroke:none;" d="M141 281L141 285L142 285L141 281z"/>
<path style="fill:#ff5c81; stroke:none;" d="M371.667 287.333L372.333 287.667L371.667 287.333z"/>
<path style="fill:#ffffff; stroke:none;" d="M368.995 288.718C364.721 289.945 358.457 293.446 355.323 296.609C352.49 299.466 353.786 303.156 358.019 302.548C362.491 301.905 369.577 297.714 372.677 294.471C376.027 290.969 373.425 287.448 368.995 288.718M338 301L315.719 339L303 363C335.71 370.788 367.463 323.753 338 301z"/>
<path style="fill:#ff9eb4; stroke:none;" d="M355 303L355 304L358 304L355 303z"/>
<path style="fill:#ffacbf; stroke:none;" d="M347.333 316.667L347.667 317.333L347.333 316.667z"/>
<path style="fill:#ffbaca; stroke:none;" d="M348 320L348 332L349 332L348 320z"/>
<path style="fill:#ff5179; stroke:none;" d="M363 322L363 323L382 323L363 322z"/>
<path style="fill:#ffffff; stroke:none;" d="M361.623 324.027C359.071 326.167 361.744 329.046 364.059 329.682C367.746 330.695 379.3 331.462 382.392 328.973C384.713 327.105 383.314 324.049 380.852 323.318C377.194 322.231 364.649 321.489 361.623 324.027z"/>
<path style="fill:#ffb3c4; stroke:none;" d="M384 325L384 328L385 328L384 325z"/>
<path style="fill:#ff829e; stroke:none;" d="M205.667 326.333L206.333 326.667L205.667 326.333z"/>
<path style="fill:#ffa9bd; stroke:none;" d="M211.333 332.667L211.667 333.333L211.333 332.667z"/>
<path style="fill:#ff597f; stroke:none;" d="M347.333 335.667L347.667 336.333L347.333 335.667z"/>
<path style="fill:#ffffff; stroke:none;" d="M355.319 349.847C352.267 351.002 353.559 354.462 355.319 356.096C358.422 358.978 368.213 365.909 372.681 364.292C375.776 363.171 374.425 359.528 372.681 357.904C369.617 355.051 359.667 348.202 355.319 349.847z"/>
<path style="fill:#ff587e; stroke:none;" d="M302.333 362.667L302.667 363.333L302.333 362.667z"/>
<path style="fill:#ff6789; stroke:none;" d="M321.667 362.333L322.333 362.667L321.667 362.333z"/>
<path style="fill:#ffafc1; stroke:none;" d="M303.667 363.333L304.333 363.667L303.667 363.333z"/>
<path style="fill:#ffa6ba; stroke:none;" d="M316 363L316 364L319 364L316 363z"/>
<path style="fill:#ff4771; stroke:none;" d="M307 364L307 365L314 365L307 364z"/>
<path style="fill:#ffaec1; stroke:none;" d="M336 368L336 369L339 369L336 368z"/>
<path style="fill:#ffffff; stroke:none;" d="M334 369C334.244 377.249 339.886 389.698 349 390C348.754 381.676 343.228 369.306 334 369z"/>
<path style="fill:#ff7292; stroke:none;" d="M333.333 371.667L333.667 372.333L333.333 371.667z"/>
<path style="fill:#ffa6ba; stroke:none;" d="M309 375L309 376L312 376L309 375z"/>
<path style="fill:#ffffff; stroke:none;" d="M308 376L308 386L308.001 392C308.014 393.961 309.136 403.07 312.977 398.377C317.253 393.153 315.302 376.569 308 376z"/>
<path style="fill:#ffd2dd; stroke:none;" d="M307 377L307 398L308 398L307 377z"/>
<path style="fill:#ffa7bb; stroke:none;" d="M235.667 378.333L236.333 378.667L235.667 378.333z"/>
<path style="fill:#ff7594; stroke:none;" d="M314 378L314 398L315 398L314 378z"/>
<path style="fill:#ff87a2; stroke:none;" d="M349 386L349 389L350 389L349 386z"/>
<path style="fill:#ff96ae; stroke:none;" d="M239.333 388.667L239.667 389.333L239.333 388.667z"/>
<path style="fill:#ffc9d5; stroke:none;" d="M344 390L344 391L348 391L344 390z"/>
<path style="fill:#ffadc0; stroke:none;" d="M252.667 409.333L253.333 409.667L252.667 409.333z"/>
<path style="fill:#ff6185; stroke:none;" d="M261.667 409.333L262.333 409.667L261.667 409.333z"/>
</svg>
